<svg width="17" height="29" viewBox="0 0 17 29" fill="none" xmlns="http://www.w3.org/2000/svg">
<path d="M10.1717 11.6386C9.83334 11.1642 9.83334 10.4079 9.83334 8.8952V8.49976C9.83334 4.30583 9.83334 2.20886 9.00805 1.84756C8.18276 1.48627 7.2982 3.19598 5.52908 6.61541L2.79218 11.9054C1.64392 14.1248 1.06979 15.2345 1.38614 16.1071C1.39138 16.1215 1.39677 16.1358 1.40232 16.1501C1.73745 17.0093 2.72904 17.0093 4.71224 17.0093C5.8143 17.0093 6.36534 17.0093 6.71097 17.4737" stroke="#ED1C24" stroke-width="2"/>
<path opacity="0.5" d="M10.171 11.6389L10.1889 11.6635C10.5346 12.1279 11.0856 12.1279 12.1876 12.1279C14.1708 12.1279 15.1624 12.1279 15.4976 12.9871C15.5031 13.0013 15.5085 13.0157 15.5137 13.0301C15.8301 13.9027 15.256 15.0124 14.1077 17.2318L11.3708 22.5217C9.60162 25.9412 8.71704 27.6509 7.89175 27.2896C7.06647 26.9283 7.06649 24.8313 7.06653 20.6373L7.06654 20.242C7.06655 18.7293 7.06656 17.973 6.72823 17.4986L6.71033 17.474" stroke="#ED1C24" stroke-width="2"/>
</svg>
