<svg width="333" height="101" viewBox="0 0 333 101" fill="none" xmlns="http://www.w3.org/2000/svg">
<path d="M2.64 70V43.6C2.64 41.84 2.992 40.74 3.696 40.3C4.444 39.86 5.918 39.64 8.118 39.64H19.734L25.146 51.784L25.278 52.642H25.41L25.542 51.784L30.558 39.64H42.834C44.946 39.64 46.288 39.948 46.86 40.564C47.476 41.136 47.784 42.302 47.784 44.062V65.644C47.784 67.096 47.63 68.13 47.322 68.746C47.014 69.318 46.464 69.67 45.672 69.802C44.88 69.934 43.758 70 42.306 70H32.736V55.612L32.208 58.186L27.324 70H18.546L13.662 58.186L13.134 55.612V70H2.64ZM68.2223 70.198C64.7903 70.198 62.0183 70.132 59.9063 70C57.7943 69.868 56.1663 69.538 55.0223 69.01C53.9223 68.482 53.1743 67.69 52.7783 66.634C52.3823 65.578 52.1843 64.17 52.1843 62.41C52.1843 60.166 52.3823 58.472 52.7783 57.328C53.1743 56.14 53.8343 55.348 54.7583 54.952C55.7263 54.512 56.9803 54.292 58.5203 54.292C59.6643 54.292 60.9843 54.292 62.4803 54.292C64.0203 54.292 65.5383 54.314 67.0343 54.358C68.5303 54.358 69.8503 54.402 70.9943 54.49C72.1823 54.578 72.9743 54.688 73.3703 54.82C73.3703 53.94 73.3043 53.236 73.1723 52.708C73.0403 52.18 72.7543 51.762 72.3143 51.454C71.9183 51.146 71.3463 50.948 70.5983 50.86C69.8943 50.728 68.9483 50.662 67.7603 50.662C66.2203 50.662 64.6583 50.684 63.0743 50.728C61.4903 50.728 59.9063 50.75 58.3223 50.794C56.7823 50.838 55.2423 50.882 53.7023 50.926V48.418C53.7023 47.054 53.9443 46.02 54.4283 45.316C54.9123 44.568 55.7043 44.106 56.8043 43.93C57.9483 43.71 59.6423 43.556 61.8863 43.468C64.1743 43.38 66.7043 43.358 69.4763 43.402C72.9963 43.402 75.8783 43.578 78.1223 43.93C80.3663 44.238 82.1043 44.832 83.3363 45.712C84.5683 46.548 85.4043 47.802 85.8443 49.474C86.3283 51.102 86.5703 53.236 86.5703 55.876L86.5043 68.68C85.4923 69.208 83.3363 69.604 80.0363 69.868C76.7363 70.088 72.7983 70.198 68.2223 70.198ZM68.1563 64.786C68.7283 64.786 69.3223 64.786 69.9383 64.786C70.5983 64.742 71.2143 64.698 71.7863 64.654C72.4023 64.61 72.9303 64.544 73.3703 64.456V58.78C72.8863 58.692 72.2703 58.626 71.5223 58.582C70.8183 58.538 70.1363 58.516 69.4763 58.516C68.8603 58.472 68.4203 58.45 68.1563 58.45C67.7163 58.45 67.3423 58.538 67.0343 58.714C66.7263 58.846 66.5063 59.132 66.3743 59.572C66.2423 60.012 66.1763 60.65 66.1763 61.486C66.1763 62.366 66.2423 63.048 66.3743 63.532C66.5063 64.016 66.7043 64.346 66.9683 64.522C67.2763 64.698 67.6723 64.786 68.1563 64.786Z" fill="#F63B50"/>
<path d="M101.307 70.33C97.4354 70.33 94.6414 69.758 92.9254 68.614C91.2094 67.47 90.3514 65.468 90.3514 62.608V41.224C90.3514 39.904 90.4614 38.936 90.6814 38.32C90.9454 37.66 91.4294 37.22 92.1334 37C92.8374 36.78 93.8714 36.67 95.2354 36.67H104.211C104.167 36.89 104.101 37.528 104.013 38.584C103.925 39.64 103.881 40.74 103.881 41.884V61.156C103.881 62.652 104.079 63.708 104.475 64.324C104.915 64.896 105.685 65.182 106.785 65.182C107.269 65.182 107.687 65.138 108.039 65.05C108.435 64.918 108.677 64.83 108.765 64.786V69.538C108.413 69.582 107.731 69.736 106.719 70C105.707 70.22 103.903 70.33 101.307 70.33ZM127.736 70.33C124.348 70.33 121.576 70.176 119.42 69.868C117.264 69.516 115.592 68.9 114.404 68.02C113.216 67.096 112.38 65.776 111.896 64.06C111.456 62.344 111.236 60.078 111.236 57.262L111.17 36.67H124.7V43.732C125.008 43.732 125.382 43.732 125.822 43.732C126.262 43.688 126.746 43.666 127.274 43.666C127.846 43.666 128.484 43.666 129.188 43.666C129.892 43.622 130.662 43.6 131.498 43.6C135.062 43.6 137.79 44.018 139.682 44.854C141.618 45.69 142.96 47.098 143.708 49.078C144.456 51.058 144.83 53.786 144.83 57.262C144.83 60.122 144.5 62.432 143.84 64.192C143.224 65.908 142.234 67.206 140.87 68.086C139.55 68.966 137.79 69.56 135.59 69.868C133.434 70.176 130.816 70.33 127.736 70.33ZM127.868 63.268C128.924 63.268 129.672 63.136 130.112 62.872C130.552 62.608 130.816 62.014 130.904 61.09C131.036 60.122 131.102 58.626 131.102 56.602C131.058 54.93 130.926 53.698 130.706 52.906C130.53 52.07 130.178 51.52 129.65 51.256C129.122 50.948 128.33 50.794 127.274 50.794C127.054 50.794 126.834 50.794 126.614 50.794C126.394 50.794 126.174 50.794 125.954 50.794C125.778 50.794 125.58 50.794 125.36 50.794C125.14 50.794 124.92 50.794 124.7 50.794V59.11C124.7 60.034 124.744 60.782 124.832 61.354C124.964 61.882 125.14 62.3 125.36 62.608C125.624 62.872 125.954 63.048 126.35 63.136C126.746 63.224 127.252 63.268 127.868 63.268Z" fill="url(#paint0_linear_3957_6127)"/>
<path d="M164.258 70.198C160.826 70.198 158.054 70.132 155.942 70C153.83 69.868 152.202 69.538 151.058 69.01C149.958 68.482 149.21 67.69 148.814 66.634C148.418 65.578 148.22 64.17 148.22 62.41C148.22 60.166 148.418 58.472 148.814 57.328C149.21 56.14 149.87 55.348 150.793 54.952C151.762 54.512 153.016 54.292 154.556 54.292C155.7 54.292 157.02 54.292 158.516 54.292C160.056 54.292 161.574 54.314 163.07 54.358C164.566 54.358 165.886 54.402 167.03 54.49C168.218 54.578 169.01 54.688 169.406 54.82C169.406 53.94 169.34 53.236 169.208 52.708C169.076 52.18 168.79 51.762 168.35 51.454C167.954 51.146 167.382 50.948 166.634 50.86C165.93 50.728 164.984 50.662 163.796 50.662C162.256 50.662 160.694 50.684 159.11 50.728C157.526 50.728 155.942 50.75 154.358 50.794C152.818 50.838 151.278 50.882 149.738 50.926V48.418C149.738 47.054 149.98 46.02 150.464 45.316C150.948 44.568 151.74 44.106 152.84 43.93C153.984 43.71 155.678 43.556 157.922 43.468C160.21 43.38 162.74 43.358 165.512 43.402C169.032 43.402 171.914 43.578 174.158 43.93C176.402 44.238 178.14 44.832 179.372 45.712C180.604 46.548 181.44 47.802 181.88 49.474C182.364 51.102 182.606 53.236 182.606 55.876L182.54 68.68C181.528 69.208 179.372 69.604 176.072 69.868C172.772 70.088 168.834 70.198 164.258 70.198ZM164.192 64.786C164.764 64.786 165.358 64.786 165.974 64.786C166.634 64.742 167.25 64.698 167.822 64.654C168.438 64.61 168.966 64.544 169.406 64.456V58.78C168.922 58.692 168.306 58.626 167.558 58.582C166.854 58.538 166.172 58.516 165.512 58.516C164.896 58.472 164.456 58.45 164.192 58.45C163.752 58.45 163.378 58.538 163.07 58.714C162.762 58.846 162.542 59.132 162.41 59.572C162.278 60.012 162.212 60.65 162.212 61.486C162.212 62.366 162.278 63.048 162.41 63.532C162.542 64.016 162.74 64.346 163.004 64.522C163.312 64.698 163.708 64.786 164.192 64.786ZM199.587 70.264C196.551 70.264 194.197 69.978 192.525 69.406C190.853 68.834 189.687 67.866 189.027 66.502C188.367 65.138 188.037 63.268 188.037 60.892V50.662H185.001V43.666H188.037V41.29C188.037 39.882 188.125 38.848 188.301 38.188C188.521 37.528 188.961 37.11 189.621 36.934C190.281 36.758 191.315 36.67 192.723 36.67H201.699C201.699 36.934 201.699 37.198 201.699 37.462C201.699 37.682 201.699 37.924 201.699 38.188V43.666H208.299V50.662H201.765V59.902C201.765 61.662 201.919 62.982 202.227 63.862C202.535 64.698 203.503 65.116 205.131 65.116C205.483 65.116 206.011 65.072 206.715 64.984C207.463 64.896 207.991 64.808 208.299 64.72V69.472C207.947 69.516 206.979 69.67 205.395 69.934C203.855 70.154 201.919 70.264 199.587 70.264Z" fill="#1BC469"/>
<path d="M269.808 24.96V43.104C266.672 43.104 264.144 42.656 262.224 41.76C260.368 40.8 258.896 39.68 257.808 38.4C256.784 37.12 256.08 35.776 255.696 34.368C255.312 32.896 255.088 31.616 255.024 30.528H249.648V78.432H258.192V84H224.976V78.432H233.52V30.528H228.048C227.984 31.616 227.76 32.896 227.376 34.368C227.056 35.776 226.352 37.12 225.264 38.4C224.24 39.68 222.768 40.8 220.848 41.76C218.928 42.656 216.432 43.104 213.36 43.104V24.96H269.808ZM325.988 30.528L306.308 85.344H303.908L274.148 26.976V24.96H291.62L309.38 60.096L320.036 30.528H309.764V24.96H332.516V30.528H325.988Z" fill="#1C274C"/>
<defs>
<linearGradient id="paint0_linear_3957_6127" x1="105" y1="11" x2="105" y2="90" gradientUnits="userSpaceOnUse">
<stop offset="0.265" stop-color="white"/>
<stop offset="0.749946" stop-color="#F2BE1D"/>
</linearGradient>
</defs>
</svg>
