<svg width="72" height="53" viewBox="0 0 72 53" fill="none" xmlns="http://www.w3.org/2000/svg">
<path fill-rule="evenodd" clip-rule="evenodd" d="M4.09977 1.52271H67.9004C69.2817 1.52271 70.4118 2.65277 70.4118 4.03397V15.7956C69.6089 15.1892 68.6108 14.8286 67.5309 14.8286H54.4817C51.8421 14.8286 49.6892 16.9814 49.6892 19.6212V35.6326H1.58838V4.03397C1.58838 2.65277 2.71844 1.52271 4.09977 1.52271ZM70.4118 48.4319V19.6212C70.4118 18.037 69.1155 16.7403 67.5309 16.7403H54.4817C52.8972 16.7403 51.6009 18.0367 51.6009 19.6212V48.4317C51.6009 50.0161 52.8974 51.3126 54.4817 51.3126H67.5309C69.1154 51.3127 70.4118 50.0158 70.4118 48.4319ZM65.3196 35.1405H66.3554C66.8832 35.1405 67.3113 34.7124 67.3113 34.1845C67.3113 33.6567 66.8832 33.2286 66.3554 33.2286H65.3196C64.7917 33.2286 64.3636 33.6567 64.3636 34.1845C64.3636 34.7124 64.7917 35.1405 65.3196 35.1405ZM60.4885 35.1405H61.5243C62.0522 35.1405 62.4803 34.7124 62.4803 34.1845C62.4803 33.6567 62.0522 33.2286 61.5243 33.2286H60.4885C59.9607 33.2286 59.5326 33.6567 59.5326 34.1845C59.5326 34.7124 59.9607 35.1405 60.4885 35.1405ZM55.6575 35.1405H56.6933C57.2211 35.1405 57.6493 34.7124 57.6493 34.1845C57.6493 33.6567 57.2211 33.2286 56.6933 33.2286H55.6575C55.1297 33.2286 54.7015 33.6567 54.7015 34.1845C54.7015 34.7124 55.1297 35.1405 55.6575 35.1405ZM65.3196 29.3625H66.3554C66.8832 29.3625 67.3113 28.9344 67.3113 28.4066C67.3113 27.8787 66.8832 27.4506 66.3554 27.4506H65.3196C64.7917 27.4506 64.3636 27.8787 64.3636 28.4066C64.3636 28.9344 64.7917 29.3625 65.3196 29.3625ZM60.4885 29.3625H61.5243C62.0522 29.3625 62.4803 28.9344 62.4803 28.4066C62.4803 27.8787 62.0522 27.4506 61.5243 27.4506H60.4885C59.9607 27.4506 59.5326 27.8787 59.5326 28.4066C59.5326 28.9344 59.9607 29.3625 60.4885 29.3625ZM55.6575 29.3625H56.6933C57.2211 29.3625 57.6493 28.9344 57.6493 28.4066C57.6493 27.8787 57.2211 27.4506 56.6933 27.4506H55.6575C55.1297 27.4506 54.7015 27.8787 54.7015 28.4066C54.7015 28.9344 55.1297 29.3625 55.6575 29.3625ZM65.3196 23.5847H66.3554C66.8832 23.5847 67.3113 23.1565 67.3113 22.6287C67.3113 22.1009 66.8832 21.6727 66.3554 21.6727H65.3196C64.7917 21.6727 64.3636 22.1009 64.3636 22.6287C64.3636 23.1565 64.7917 23.5847 65.3196 23.5847ZM60.4885 23.5847H61.5243C62.0522 23.5847 62.4803 23.1565 62.4803 22.6287C62.4803 22.1009 62.0522 21.6727 61.5243 21.6727H60.4885C59.9607 21.6727 59.5326 22.1009 59.5326 22.6287C59.5326 23.1565 59.9607 23.5847 60.4885 23.5847ZM55.6575 23.5847H56.6933C57.2211 23.5847 57.6493 23.1565 57.6493 22.6287C57.6493 22.1009 57.2211 21.6727 56.6933 21.6727H55.6575C55.1297 21.6727 54.7015 22.1009 54.7015 22.6287C54.7015 23.1565 55.1297 23.5847 55.6575 23.5847ZM61.0065 38.2954C62.392 38.2954 63.649 38.8589 64.5615 39.7698L64.5672 39.7755C65.477 40.688 66.0395 41.9441 66.0395 43.3284C66.0395 44.7177 65.476 45.9761 64.5651 46.887C63.6546 47.7975 62.3958 48.3612 61.0065 48.3612C59.6173 48.3612 58.3587 47.7976 57.4481 46.887C56.5371 45.9759 55.9737 44.7177 55.9737 43.3284C55.9737 41.9391 56.5373 40.6805 57.4479 39.7698C58.3588 38.8587 59.6171 38.2954 61.0065 38.2954ZM63.2135 41.1178L63.2171 41.1214C63.7795 41.6837 64.1276 42.4641 64.1276 43.3284C64.1276 44.1904 63.7783 44.9709 63.2135 45.5354C62.649 46.1 61.8685 46.4493 61.0065 46.4493C60.1445 46.4493 59.364 46.1 58.7996 45.5354C58.235 44.9707 57.8857 44.1904 57.8857 43.3284C57.8857 42.4664 58.235 41.6859 58.7995 41.1214C59.3642 40.5567 60.1445 40.2074 61.0065 40.2074C61.871 40.2073 62.6512 40.5553 63.2135 41.1178ZM13.8296 14.8574C17.1302 11.5569 21.4569 9.90651 25.7832 9.90651C30.1095 9.90651 34.4363 11.557 37.7368 14.8574C38.11 15.2306 38.7152 15.2306 39.0884 14.8574C39.4616 14.4842 39.4616 13.8791 39.0884 13.5058C35.4144 9.83184 30.5985 7.99456 25.7832 7.99456C20.9679 7.99456 16.1523 9.83184 12.478 13.5058C12.1048 13.8791 12.1048 14.4842 12.478 14.8574C12.8512 15.2305 13.4563 15.2305 13.8296 14.8574ZM22.0913 23.1187C23.1106 22.0995 24.447 21.5897 25.7832 21.5897C27.1193 21.5897 28.4557 22.0995 29.4753 23.1189C29.8485 23.4921 30.4536 23.4921 30.8268 23.1189C31.2 22.7456 31.2 22.1405 30.8264 21.767C29.4337 20.3744 27.6084 19.6779 25.7832 19.6779C23.958 19.6779 22.1325 20.3745 20.7395 21.7674C20.3663 22.1406 20.3663 22.7458 20.7395 23.1189C21.1128 23.4922 21.7179 23.4922 22.0913 23.1187ZM17.9603 18.9882C20.1202 16.8283 22.9518 15.748 25.7833 15.748C28.6147 15.748 31.4463 16.8282 33.6063 18.9882C33.9795 19.3614 34.5847 19.3614 34.9577 18.9882C35.331 18.615 35.331 18.0098 34.9577 17.6366C32.4242 15.1031 29.1036 13.8361 25.7833 13.8361C22.4629 13.8361 19.1423 15.1031 16.6088 17.6366C16.2356 18.0098 16.2356 18.615 16.6088 18.9882C16.9818 19.3614 17.587 19.3614 17.9603 18.9882ZM25.7832 25.7407C24.8388 25.7407 24.073 26.5063 24.073 27.4509C24.073 28.3953 24.8388 29.161 25.7832 29.161C26.7275 29.161 27.4932 28.3953 27.4932 27.4509C27.4934 26.5063 26.7276 25.7407 25.7832 25.7407ZM27.0914 41.9695C26.5635 41.9695 26.1354 41.5413 26.1354 41.0135C26.1354 40.4856 26.5635 40.0575 27.0914 40.0575H44.9089C45.4367 40.0575 45.8649 40.4856 45.8649 41.0135C45.8649 41.5413 45.4367 41.9695 44.9089 41.9695H27.0914ZM49.6892 45.5894V37.5444H1.58838V43.0781C1.58838 44.4593 2.71844 45.5894 4.09977 45.5894H49.6892ZM32.2241 50.3563V47.501H34.1361V50.3563H37.8639V47.501H39.7758V50.3563H46.6319C47.1597 50.3563 47.5878 50.7845 47.5878 51.3123C47.5878 51.8401 47.1597 52.2683 46.6319 52.2683H25.3683C24.8404 52.2683 24.4123 51.8401 24.4123 51.3123C24.4123 50.7845 24.8404 50.3563 25.3683 50.3563H32.2241Z" fill="url(#paint0_linear_6_621)"/>
<defs>
<linearGradient id="paint0_linear_6_621" x1="9.89179" y1="52.4175" x2="64.8616" y2="-2.55215" gradientUnits="userSpaceOnUse">
<stop stop-color="#011C49"/>
<stop offset="1" stop-color="#00B8E0"/>
</linearGradient>
</defs>
</svg>
