<svg width="340" height="101" viewBox="0 0 340 101" fill="none" xmlns="http://www.w3.org/2000/svg">
<path d="M1.79055 71V61.1775L16.2173 41.5326C14.3074 41.5326 12.6447 41.8651 11.2293 42.5302C9.831 43.1782 8.61171 43.9371 7.57149 44.8067H3.27416V31.7101H33.7136V42.3L20.8216 60.7171C21.265 60.7683 21.6828 60.7938 22.075 60.7938C23.695 60.7938 25.1019 60.5039 26.2956 59.9241C27.5063 59.3273 28.5466 58.6537 29.4162 57.9034H33.7136V71H1.79055ZM167.545 71V60.7938L170.614 60.2055V45.6509L167.545 45.0625V34.9843H186.013V49.3599L192.817 34.9843H209.393V41.4814C207.602 42.9991 205.965 44.7044 204.481 46.5973C202.998 48.4731 201.633 50.4257 200.389 52.455C201.855 54.7742 203.373 57.0934 204.942 59.4126C206.528 61.7147 208.241 63.8378 210.083 65.7818V71H192.817L186.013 55.9082V71H167.545Z" fill="#F63B50"/>
<path d="M36.9366 71V59.1312L39.9038 58.5429L46.9893 34.9843H66.8388L73.9755 58.5429L76.9171 59.1312V71H63.2321L61.9532 64.9377H51.9005L50.6215 71H36.9366ZM53.4608 56.8546H60.3928L56.914 42.7092L53.4608 56.8546Z" fill="#FFBE45"/>
<path d="M80.1145 71V60.7938L83.184 60.2055V45.6509L80.1145 45.0625V34.9843H101.064C103.281 34.9843 105.438 35.061 107.536 35.2145C109.633 35.368 111.552 35.709 113.291 36.2377C115.03 36.7663 116.471 37.5678 117.614 38.6421C118.773 39.7165 119.515 41.1745 119.839 43.0162C120.01 43.9712 120.095 45.0199 120.095 46.1625C120.095 48.0894 119.78 49.6498 119.149 50.8435C118.535 52.0372 117.682 53.0007 116.591 53.7339C115.499 54.4672 114.229 55.1152 112.779 55.678C113.632 57.3662 114.766 59.0203 116.181 60.6404C117.597 62.2433 118.901 63.7269 120.095 65.0912V71H104.799C103.758 69.056 102.744 67.0267 101.755 64.9121C100.783 62.7805 100.007 60.5039 99.4269 58.0824H98.5828V71H80.1145ZM98.5828 51.1504C100.544 51.1504 102.062 50.8691 103.136 50.3063C104.21 49.7436 104.747 48.4816 104.747 46.5206C104.747 44.5595 104.202 43.289 103.11 42.7092C102.036 42.1294 100.527 41.8395 98.5828 41.8395V51.1504Z" fill="#6CC4BD"/>
<path d="M143.833 71.4604C139.467 71.4604 135.673 70.7954 132.45 69.4652C129.227 68.1351 126.729 66.0717 124.955 63.275C123.199 60.4784 122.32 56.8887 122.32 52.5061C122.32 48.2088 123.224 44.7044 125.032 41.993C126.839 39.2646 129.355 37.2523 132.578 35.9563C135.818 34.6603 139.569 34.0123 143.833 34.0123C148.096 34.0123 151.848 34.6603 155.088 35.9563C158.328 37.2523 160.851 39.2646 162.659 41.993C164.484 44.7044 165.396 48.2088 165.396 52.5061C165.396 56.8887 164.518 60.4784 162.761 63.275C161.005 66.0717 158.515 68.1351 155.292 69.4652C152.069 70.7954 148.249 71.4604 143.833 71.4604ZM143.833 60.3078C146.22 60.3078 147.849 59.5916 148.718 58.1592C149.588 56.7267 150.023 54.8424 150.023 52.5061C150.023 50.1699 149.579 48.3196 148.693 46.9554C147.823 45.5912 146.203 44.9091 143.833 44.9091C141.513 44.9091 139.91 45.5741 139.024 46.9043C138.154 48.2344 137.719 50.059 137.719 52.3782C137.719 54.7486 138.128 56.667 138.947 58.1336C139.783 59.5831 141.411 60.3078 143.833 60.3078Z" fill="#1F9EF2"/>
<path d="M276.808 24.96V43.104C273.672 43.104 271.144 42.656 269.224 41.76C267.368 40.8 265.896 39.68 264.808 38.4C263.784 37.12 263.08 35.776 262.696 34.368C262.312 32.896 262.088 31.616 262.024 30.528H256.648V78.432H265.192V84H231.976V78.432H240.52V30.528H235.048C234.984 31.616 234.76 32.896 234.376 34.368C234.056 35.776 233.352 37.12 232.264 38.4C231.24 39.68 229.768 40.8 227.848 41.76C225.928 42.656 223.432 43.104 220.36 43.104V24.96H276.808ZM332.988 30.528L313.308 85.344H310.908L281.148 26.976V24.96H298.62L316.38 60.096L327.036 30.528H316.764V24.96H339.516V30.528H332.988Z" fill="#1C274C"/>
</svg>
